<svg width="800" height="600" xmlns="http://www.w3.org/2000/svg">
 <!-- Created with Method Draw - http://github.com/duopixel/Method-Draw/ -->
 <g>
  <title>background</title>
  <rect fill="#fff" id="canvas_background" height="602" width="802" y="-1" x="-1"/>
  <g display="none" overflow="visible" y="0" x="0" height="100%" width="100%" id="canvasGrid">
   <rect fill="url(#gridpattern)" stroke-width="0" y="0" x="0" height="100%" width="100%"/>
  </g>
 </g>
 <g>
  <title>Layer 1</title>
  <path d="m341.5,105.45313c0,1 0,2 0,3c0,3 0,6 0,8c0,3 0,7 0,10c0,3 0,4 0,7c0,2 0,3 0,5c0,1 0,3 0,4c0,1 0,2 0,4c0,2 1,6 1,8c0,1 0,3 0,4l0,1l0,1" id="svg_8" fill-opacity="null" stroke-opacity="null" stroke-width="1.5" stroke="#000" fill="none"/>
  <path d="m281.5,168.45313c2,0 2.82376,-1.48625 5,-2c3.89301,-0.91901 11,0 20,0c10,0 21,0 28,0c4,0 8,0 9,0c5,0 8,0 10,0c1,0 4,0 6,0c2,0 5,0 7,0c2,0 4,0 8,0c2,0 5,0 7,0c3,0 4,0 5,0c1,0 3,0 5,0c4,0 6,0 10,0c1,0 2,0 4,0l1,0l1,0l1,0" id="svg_9" fill-opacity="null" stroke-opacity="null" stroke-width="1.5" stroke="#000" fill="none"/>
  <path stroke="#000" d="m342.7549,218.37724c-0.89216,0 -1.78431,0 -2.67647,0c-0.89216,0 -1.67598,0.48097 -4.46078,0.97471c-3.52256,0.62453 -6.26813,0.66245 -8.02941,0.97471c-2.7848,0.49373 -5.29419,2.09005 -7.13725,2.92412c-2.6065,1.17954 -4.46078,0.97471 -5.35294,1.94941c-0.89216,0.97471 -2.42141,3.13044 -4.46078,5.84824c-1.5998,2.13202 -3.38115,4.94998 -4.46078,7.79765c-0.76343,2.0136 -2.67647,4.87353 -2.67647,6.82294c0,0.97471 0,2.92412 0,5.84824c0,0.97471 0,3.89883 0,6.82294c0,1.94941 0.12873,4.80934 0.89216,6.82294c1.07964,2.84767 2.40216,7.00424 3.56863,8.77236c2.21318,3.35475 4.83447,4.30708 6.2451,5.84824c1.41063,1.54115 5.5304,4.41774 8.02941,5.84824c3.95127,2.26183 5.43094,2.72328 9.81373,4.87353c1.81984,0.89285 3.56863,1.94941 5.35294,1.94941c1.78431,0 2.67647,0 4.46078,0c2.67647,0 6.2451,0 8.02941,0c3.56863,0 6.2451,0 7.13725,0c1.78431,0 2.67647,0 4.46078,0c0.89216,0 3.58014,0.15614 4.46078,0c2.7848,-0.49372 5.22155,-3.09284 6.2451,-3.89883c1.61837,-1.27439 3.05015,-2.35767 4.46078,-3.89883c1.41063,-1.54115 2.40216,-4.08013 3.56863,-5.84824c1.47546,-2.23649 1.99363,-3.07252 2.67647,-4.87353c0.96567,-2.54703 3.22721,-3.97303 3.56863,-4.87353c0.96567,-2.54703 3.41199,-3.99423 4.46078,-5.84824c0.93806,-1.65828 1.30148,-3.60002 1.78431,-4.87353c0.34142,-0.90051 0.43383,-2.75232 0.89216,-4.87353c0.40995,-1.89727 0.89216,-2.92412 0.89216,-3.89883c0,-0.97471 0,-1.94941 0,-3.89883c0,-0.97471 0,-2.92412 0,-3.89883c0,-0.97471 -0.40932,-2.62531 -0.89216,-3.89883c-0.34142,-0.90051 -0.46408,-1.29019 -1.78431,-2.92412c-2.12884,-2.63463 -5.35294,-1.94941 -6.2451,-2.92412c-1.78431,-1.94941 -4.32939,-2.11813 -5.35294,-2.92412c-1.61837,-1.27438 -2.67647,-1.94941 -4.46078,-1.94941c-0.89216,0 -2.19364,-0.6759 -2.67647,-1.94941c-0.34142,-0.90051 -1.80819,-0.75077 -2.67647,-0.97471c-1.94155,-0.50075 -2.74437,-1.5764 -3.56863,-1.94941c-1.16565,-0.52751 -2.67647,-1.94941 -3.56863,-1.94941c-0.89216,0 -1.23731,-0.89439 -3.56863,-1.94941c-0.82425,-0.37301 -1.85222,0.37301 -2.67647,0c-1.16565,-0.52751 -1.78431,-0.97471 -2.67647,-0.97471c-0.89216,0 -2.67647,-1.94941 -3.56863,-1.94941c-0.89216,0 -1.78431,0 -2.67647,0c-0.89216,0 -1.78431,0 -2.67647,0l-0.89216,0l-0.89216,0" id="svg_10" fill-opacity="null" stroke-opacity="null" stroke-width="1.5" fill="none"/>
  <path d="m346.5,316.45313c0,1 0,3 0,5c0,2 0,5 0,8c0,2 0,5 0,8c0,1 -1,5 -1,6c0,1 0,2 0,4c0,1 0.28979,3.04291 0,4c-1.04483,3.45084 -2,4 -2,5c0,3 0,4 0,6c0,1 0,3 0,4c0,2 0,3 0,4l0,1l0,1" id="svg_11" fill-opacity="null" stroke-opacity="null" stroke-width="1.5" stroke="#000" fill="none"/>
  <path d="m259.5,371.45313c3,0 6,-1 12,-1c5,0 11,0 16,0c2,0 6,0 11,0c6,0 13,0 16,0c3,0 7,0 11,0c4,0 8,0 13,0c5,0 9,0 12,0c5,0 10,0 13,0c1,0 3,0 7,0c3,0 6,0 7,0c3,0 6,0 9,0c5,0 7,0 10,0c2,0 4,0 7,0c2,0 3,0 6,0c2,0 3,0 6,0c2,0 3,0 5,0c1,0 3.02676,0.22977 4,0c2.17624,-0.51373 4,-1 5,-1c1,0 1.29291,-0.29291 2,-1c0.70709,-0.70709 2,0 4,0c1,0 3,0 5,0l1,0" id="svg_12" fill-opacity="null" stroke-opacity="null" stroke-width="1.5" stroke="#000" fill="none"/>
  <path stroke="#000" d="m261.02273,45.41939c-1.18393,0 -2.36786,0 -3.55179,0c-1.18393,0 -2.36786,0 -3.55179,0c-3.55179,0 -7.19861,-0.76056 -10.65538,0c-2.57652,0.56689 -7.59948,0.46219 -9.47145,2.20691c-1.87197,1.74471 -5.77939,3.52032 -9.47145,5.51726c-2.28971,1.23845 -4.38703,3.69236 -7.10359,5.51726c-2.14765,1.44271 -3.77201,1.86765 -5.91965,3.31036c-2.71656,1.8249 -4.98633,2.9949 -8.28752,5.51726c-2.58967,1.9787 -4.73572,4.41381 -8.28752,7.72417c-1.18393,1.10345 -4.98633,2.9949 -8.28752,5.51726c-2.58967,1.9787 -4.39727,3.54393 -7.10359,6.62072c-3.18452,3.62044 -5.58696,6.96302 -9.47145,9.93108c-3.30119,2.52236 -6.95874,6.69355 -8.28752,8.82762c-2.14259,3.44109 -4.39727,5.75084 -7.10359,8.82762c-2.12302,2.41363 -5.07739,4.26847 -7.10359,8.82762c-1.43273,3.22381 -2.21609,5.61606 -4.73572,8.82762c-4.47462,5.70344 -4.48693,8.91417 -5.91965,12.13798c-2.02619,4.55915 -3.00777,6.67975 -3.55179,8.82762c-1.21647,4.80279 -2.97316,6.65379 -3.55179,11.03453c-0.59643,4.51556 -2.50503,7.68427 -3.55179,11.03453c-1.3648,4.36822 -3.45424,8.15106 -4.73572,11.03453c-1.81228,4.07782 -1.5902,7.5874 -3.55179,13.24144c-1.50188,4.32897 -2.50503,9.89117 -3.55179,13.24144c-1.3648,4.36822 -2.36786,7.72417 -2.36786,11.03453c0,5.51726 -2.36786,9.93108 -2.36786,14.34489c0,5.51726 -0.78414,10.00407 -2.36786,16.55179c-1.89545,7.83661 -1.97725,11.04956 -2.36786,15.44834c-0.59399,6.68918 -1.18393,11.03453 -1.18393,14.34489c0,5.51726 0,11.03453 0,14.34489c0,4.41381 0,7.72417 0,13.24144c0,4.41381 0,8.82762 0,15.44834c0,5.51726 -0.86793,11.08413 0,17.65525c0.59643,4.51558 -0.17612,7.87177 1.18393,13.24144c0.60824,2.40138 3.55179,6.62072 4.73572,11.03453c1.18393,4.41381 2.54277,8.76519 4.73572,14.34489c1.28775,3.27652 1.06356,9.14965 3.55179,15.44834c2.38522,6.03794 4.96551,8.70464 8.28752,14.34489c2.54786,4.32585 4.24998,10.18815 7.10359,14.34489c4.08573,5.95157 7.96073,10.17683 11.83931,14.34489c4.38809,4.7156 12.35784,10.61568 20.12682,16.55179c6.60236,5.04471 12.76859,11.28537 17.75896,15.44834c5.64871,4.71217 9.53851,7.63318 13.02324,9.93108c4.83245,3.1866 8.78874,3.78292 15.3911,8.82762c5.17934,3.95742 11.87562,7.62742 15.3911,8.82762c5.98664,2.04389 10.58868,3.5182 14.20717,4.41381c5.83464,1.44414 10.58839,3.47338 16.57503,5.51726c3.51548,1.2002 10.24678,3.11498 17.75896,5.51726c5.71013,1.82601 14.13372,3.8602 21.31076,4.41381c5.89949,0.45508 11.75144,0.54903 17.75896,1.10345c4.71267,0.43494 11.83931,0 16.57503,0c5.91965,0 11.83931,2.20691 16.57503,2.20691c5.91965,0 14.20717,0 17.75896,0c5.91965,0 11.83931,0 17.75896,0c7.10359,0 11.93433,0.76058 15.3911,0c5.15307,-1.13379 9.42863,-3.43822 13.02324,-4.41381c4.6868,-1.27203 12.87648,-2.58554 18.94289,-4.41381c4.64467,-1.39979 10.65538,-3.31036 13.02324,-4.41381c4.73572,-2.20691 7.58192,-2.66104 13.02324,-6.62072c3.95917,-2.88107 8.28752,-5.51726 14.20717,-8.82762c5.91965,-3.31036 11.42178,-5.56175 15.3911,-8.82762c3.20017,-2.63303 3.55179,-3.31036 7.10359,-5.51726c3.55179,-2.20691 7.25989,-5.24726 11.83931,-7.72417c3.69205,-1.99694 5.91965,-4.41381 9.47145,-7.72417c4.73572,-4.41381 8.28752,-7.72417 11.83931,-11.03453c2.36786,-2.20691 6.14497,-5.38654 8.28752,-8.82762c2.65756,-4.26813 5.59289,-9.07338 9.47145,-13.24144c3.29107,-3.53669 4.55572,-6.70868 7.10359,-11.03453c3.322,-5.64024 7.59952,-10.21421 9.47145,-15.44834c1.12316,-3.14047 1.55181,-6.70928 2.36786,-9.93108c1.21645,-4.80279 3.82176,-9.13339 5.91965,-13.24144c2.54411,-4.98174 4.27477,-9.00337 5.91965,-12.13798c1.87547,-3.574 1.90691,-6.79647 3.55179,-9.93108c1.87547,-3.574 2.63328,-6.5135 3.55179,-8.82762c1.69359,-4.26706 2.76089,-10.18418 4.73572,-14.34489c1.7269,-3.63845 4.39147,-7.32684 8.28752,-15.44834c3.0563,-6.37102 4.45318,-11.08383 5.91965,-17.65525c1.98806,-8.90864 4.24745,-15.46713 4.73572,-20.96561c0.59399,-6.68918 2.36786,-15.44834 3.55179,-22.06906c1.18393,-6.62072 1.77387,-12.06952 2.36786,-18.7587c0.48827,-5.49846 0,-9.93108 0,-14.34489c0,-3.31036 0,-7.72417 0,-13.24144c0,-5.51726 0,-9.93108 0,-13.24144c0,-4.41381 0,-7.72417 0,-13.24144c0,-4.41381 -1.40924,-10.90379 -3.55179,-14.34489c-2.65756,-4.26815 -3.72262,-7.6515 -4.73572,-9.93108c-1.43273,-3.22381 -3.68454,-8.73748 -7.10359,-13.24144c-2.46549,-3.24786 -4.77778,-9.38403 -8.28752,-14.34489c-2.76508,-3.90835 -6.92734,-9.36314 -9.47145,-14.34489c-2.09789,-4.10805 -4.6381,-8.89013 -7.10359,-12.13798c-3.41905,-4.50396 -5.55567,-6.82596 -7.10359,-8.82762c-1.958,-2.53192 -6.28667,-5.88967 -9.47145,-7.72417c-1.42427,-0.82042 -1.26205,-2.0719 -3.55179,-3.31036c-3.69205,-1.99694 -7.15077,-2.12302 -9.47145,-3.31036c-6.0516,-3.09619 -10.74823,-3.07847 -14.20717,-4.41381c-4.89166,-1.88846 -11.96613,-0.42618 -17.75896,-4.41381c-2.12951,-1.46589 -6.13987,-1.86765 -8.28752,-3.31036c-2.71656,-1.8249 -4.79906,-2.80332 -7.10359,-3.31036c-2.57652,-0.56689 -3.65339,-1.56738 -5.91965,-2.20691c-4.08555,-1.15292 -3.85558,-4.87601 -9.47145,-6.62072c-2.24635,-0.69788 -7.10359,-2.20691 -10.65538,-3.31036c-3.55179,-1.10345 -8.43992,-1.24761 -11.83931,-2.20691c-4.08555,-1.15292 -5.87684,-2.33476 -9.47145,-3.31036c-4.6868,-1.27203 -9.32768,-3.85487 -13.02324,-4.41381c-3.50594,-0.53026 -5.43897,-0.56608 -8.28752,-2.20691c-3.18478,-1.8345 -5.91965,-1.10345 -9.47145,-2.20691c-3.55179,-1.10345 -5.3859,-2.15744 -9.47145,-3.31036c-5.66566,-1.59882 -8.13158,-0.31844 -13.02324,-2.20691c-3.45894,-1.33535 -8.38254,-0.34289 -11.83931,-1.10345c-5.15307,-1.13378 -7.19861,-1.44634 -10.65538,-2.20691c-2.57652,-0.56689 -6.74065,-1.60972 -8.28752,-2.20691c-2.18761,-0.84454 -3.55179,0 -5.91965,0c-1.18393,0 -4.73572,0 -8.28752,0c-4.73572,0 -8.28752,0 -13.02324,0c-4.73572,0 -8.28752,0 -16.57503,0c-4.73572,0 -8.28752,0 -14.20717,0c-4.73572,0 -8.28752,0 -10.65538,0c-3.55179,0 -5.91965,0 -7.10359,0c-2.36786,0 -5.91965,0 -7.10359,0c-3.55179,0 -5.91965,0 -10.65538,0c-2.36786,0 -4.73572,0 -8.28752,0c-2.36786,0 -6.00976,-0.42227 -7.10359,0c-1.54686,0.59718 -2.71464,0.32319 -3.55179,1.10345c-0.83715,0.78026 -1.29984,2.01317 -3.55179,3.31036c-1.00711,0.58012 -2.45797,0.68118 -3.55179,1.10345c-1.54686,0.59718 -1.18393,2.20691 -2.36786,3.31036l-1.18393,0" id="svg_13" fill-opacity="null" stroke-opacity="null" stroke-width="1.5" fill="none"/>
  <path d="m481.5,64.45313c0,-1 0,-2 0,-3c0,-2 -0.49347,-4.87856 -1,-8c-0.16019,-0.98709 0,-3 0,-5c0,-2 0,-5 0,-6c0,-1 0,-3 0,-4c0,-2 0.48627,-3.82375 1,-6c0.22977,-0.97325 1.9176,-2.38687 3,-5c0.38269,-0.92388 2,-2 3,-3c2,-2 5.94366,-3.18834 9,-4c4.92819,-1.30875 9.92578,-2.49755 15,-3c1.9903,-0.19707 4,0 6,0c1,0 2.02582,0.32036 4,0c3.12146,-0.50654 4,-1 6,-1c3,0 8,0 12,0c1,0 4,0 6,0c2,0 3,0 6,0c2,0 4.66888,0.62021 8,2c4.71088,1.95131 9,2 11,4c1,1 3.41888,1.41886 5,3c1.58112,1.58114 2.69257,3.18601 4,5c0.8269,1.14727 3.48627,4.82375 4,7c0.68927,2.91975 0.97253,8.6475 2,13c0.68927,2.91975 1,8 1,10c0,4 0,7 0,9c0,2 0,4 0,6c0,3 0.41418,4.58578 -1,6c-0.70709,0.70711 -2,2 -3,3c-2,2 -3.18604,2.69255 -5,4c-2.29456,1.65381 -4,2 -5,3c-2,2 -4.29291,2.29289 -5,3c-0.70709,0.70711 -0.82373,2.48626 -3,3c-0.97327,0.22975 -2,1 -2,2l-1,0" id="svg_14" fill-opacity="null" stroke-opacity="null" stroke-width="1.5" stroke="#000" fill="none"/>
  <path d="m198.5,71.45313c1,0 1,-2 1,-4c0,-2 -2.72961,-10.22885 -7,-15c-2.82951,-3.16131 -7.22021,-7.79488 -10,-11c-3.27602,-3.77727 -7.64734,-7.04033 -11,-10c-2.703,-2.38616 -5.82375,-5.48626 -8,-6c-0.97325,-0.22975 -3.93414,-1.14429 -6,-2c-2.92157,-1.21015 -6,-2 -7,-2c-3,0 -5,0 -7,0c-3,0 -5.0535,-0.45951 -7,0c-2.17625,0.51374 -6,3 -7,4c-2,2 -5.32367,3.52016 -7,5c-2.703,2.38616 -4.70546,6.34619 -7,8c-1.814,1.30745 -3.69255,2.18601 -5,4c-1.65381,2.29454 -2.297,4.61384 -5,7c-1.67633,1.47984 -3.29289,2.29289 -4,3c-0.70711,0.70711 -1.1731,1.85273 -2,3c-1.30745,1.81399 -1,4 -2,6c-1,2 -2.49346,1.87856 -3,5c-0.32037,1.97417 -0.95517,3.54916 -2,7c-0.86935,2.87128 0,6 0,7c0,3 0,6 0,7c0,2 0,5 0,6c0,1 0,2 0,3c0,2 -0.30745,3.186 1,5c1.65381,2.29454 1.96855,3.41207 4,7c0.69678,1.23065 5.1731,3.85273 6,5c1.30745,1.814 1.38687,3.91761 4,5c0.92388,0.38268 3.02675,1.77025 4,2c2.17625,0.51374 2.85273,1.1731 4,2c1.814,1.30745 3.85273,2.1731 5,3c1.814,1.30745 3.186,0.69255 5,2c1.14727,0.8269 2.69344,2.4588 4,3c1.84776,0.76537 4.82375,2.48625 7,3c0.97325,0.22975 3,2 4,2l1,1" id="svg_15" fill-opacity="null" stroke-opacity="null" stroke-width="1.5" stroke="#000" fill="none"/>
  <path d="m240.5,205.45313c-2,0 -4.82443,-0.90211 -6,1c-0.52573,0.85065 0,3 1,3c2,0 6,0 10,0c3,0 4.29289,0.70711 5,0c0.70711,-0.70711 0.17625,-4.48625 -2,-5c-0.97325,-0.22975 -3.07843,-0.21014 -6,1c-4.13171,1.71141 -7.48625,4.82375 -8,7c-0.91901,3.89299 -0.70711,6.29289 0,7c1.41422,1.41422 5.3054,0.63832 10,-2c4.35883,-2.44963 4.49756,-6.9258 5,-12c0.19708,-1.99026 0.17625,-4.48625 -2,-5c-2.91975,-0.68925 -5.45331,-1.26797 -7,0c-3.94328,3.23273 -1,8 -1,12c0,1 0.82375,3.48625 3,4c3.89299,0.91901 7.64886,1.80423 10,-2c1.57719,-2.55196 0.68925,-6.08025 0,-9c-0.51375,-2.17625 -7,-2 -12,-2c-3,0 -6.48625,3.82375 -7,6c-0.68925,2.91975 -0.14726,5.1731 1,6c1.814,1.30745 8,1 13,1c3,0 4,-1 4,-5c0,-6 -0.9258,-10.49756 -6,-11c-4.97566,-0.49269 -10.91753,1.05664 -13,4c-2.88786,4.0817 -3,8 -3,9c0,2 2,3 8,3c7,0 13.15224,0.76537 15,0c2.61313,-1.0824 2.70711,-7.29289 2,-8c-3.53554,-3.53554 -9.35498,-1.41557 -12,0c-3.17892,1.70131 -4,6 -4,7c0,1 2,1 3,1c2,0 7.44804,1.57719 10,0c1.90211,-1.17557 2.88744,-5.4733 1,-9c-1.70131,-3.17892 -8.31671,-3.34164 -11,-2c-4.47214,2.23607 -5.49756,6.9258 -6,12c-0.49269,4.97566 -0.38269,6.07613 0,7c1.0824,2.61313 7.05165,2.64073 11,2c3.12144,-0.50655 4,-5 4,-10c0,-3 -0.40535,-10.08272 -7,-13c-3.77065,-1.66801 -9.22836,-2.14806 -12,-1c-2.61313,1.0824 -4,5 -4,8c0,3 0,4 4,4c5,0 13.76727,2.94328 17,-1c1.90196,-2.32002 0.80092,-7.06456 0,-12c-0.50655,-3.12144 -6,-4 -11,-4c-4,0 -5,2 -5,6c0,5 -1.68188,7.51579 0,10c3.01907,4.45927 10,3 16,3c6,0 10,0 10,-3c0,-3 0.74341,-10.41885 -4,-12c-3.79474,-1.26491 -10.29865,-1.70213 -15,0c-7.34375,2.65881 -8,7 -8,10c0,3 -0.17625,5.48625 2,6c6.81274,1.60828 13,2 18,2c5,0 5,-3 5,-10c0,-3 -2.47125,-7.45877 -9,-9c-4.86624,-1.14876 -10.86925,-0.69803 -16,3c-4.05621,2.92355 -3,7 -3,9c0,3 -1.17892,5.29869 2,7c4.40837,2.35928 12.14514,1.06773 16,0c5.61937,-1.55647 6,-9 6,-15c0,-5 -1.08031,-10.37642 -5,-12c-1.84776,-0.76537 -4.64734,-0.95967 -8,2c-8.10901,7.15849 -7.49623,13.90779 -8,18c-0.24437,1.98502 -0.30656,3.4588 1,4c2.77164,1.14806 8,0 14,0c3,0 6,-2 6,-6c0,-2 -1,-3 -5,-3c-4,0 -9.72398,1.22273 -13,5c-1.8532,2.13675 -2,7 -2,9c0,2 3,4 7,4c6,0 11.53493,0.68924 13,-1c2.07193,-2.38896 1.91901,-8.10701 1,-12c-0.51375,-2.17625 -1.54915,-2.95517 -5,-4c-1.91418,-0.57957 -5,3 -6,4l0,2l-1,0" id="svg_16" fill-opacity="null" stroke-opacity="null" stroke-width="1.5" stroke="#000" fill="none"/>
  <path d="m442.5,199.45313c-3,0 -6,2 -9,4c-3,2 -3.48627,4.82375 -4,7c-0.4595,1.9465 0,4 2,4c3,0 7.63538,1.84624 10,0c3.24985,-2.53741 2.34164,-9.31671 1,-12c-2.23605,-4.47214 -9,-5 -14,-5c-4,0 -7.98163,2.71201 -9,8c-0.75644,3.92783 -2.16556,8.6369 0,12c6.5416,10.15912 21,5 29,5c5,0 8,-4 8,-10c0,-5 -1.38062,-10.44353 -7,-12c-2.89114,-0.8008 -7.83771,-1.16228 -11,2c-1.58115,1.58115 -1,5 -1,7c0,2 1,4 5,4c6,0 10.3764,0.91969 12,-3c1.14804,-2.77164 2.0741,-8.12709 -3,-11c-5.22119,-2.95619 -12.64734,-0.95967 -16,2c-2.703,2.38617 -3,7 -3,10c0,4 1.00967,5.68932 6,6c8.04669,0.50096 16.46448,4.53554 20,1c2.82843,-2.82843 2.10294,-9.5974 0,-13c-3.5267,-5.70634 -12.05414,-3.56732 -15,-3c-5.28799,1.01837 -8.49622,6.90779 -9,11c-0.36655,2.97752 -0.24289,5.98692 6,7c4.93542,0.80092 12.74673,2.62866 17,0c1.9021,-1.17557 1,-7 1,-12c0,-5 -1,-9 -6,-9c-4,0 -11.88596,-0.72258 -15,4c-2.96448,4.49576 -3,8 -3,11c0,2 1,2 3,2c4,0 11.89737,-0.56134 14,-6c1.83868,-4.75597 2.74341,-14.25658 -2,-19c-3.16229,-3.16228 -7.15396,-2.94868 -10,-2c-4.74341,1.58115 -5.49902,6.95332 -6,15c-0.3107,4.99034 0.22299,9.64272 2,11c4.05222,3.09508 12.35498,2.41557 15,1c3.17892,-1.70131 2.96109,-9.07747 2,-15c-1.01309,-6.24289 -9,-10 -16,-10c-7,0 -11.49347,0.87856 -12,4c-1.12128,6.90961 -0.30655,10.4588 1,11c3.69553,1.53073 10.30447,1.53073 14,0c2.61313,-1.0824 3,-4 3,-6c0,-3 -0.03583,-4.34531 -6,-5c-9.16449,-1.00601 -13.18875,-2.58472 -14,-2c-2.56537,1.84901 -1,8 -1,12c0,3 3,5 8,5c7,0 13.51187,0.60944 16,-2c4.02386,-4.22003 3,-9 3,-13c0,-2 -2.31671,-3.34164 -5,-2c-4.47214,2.23607 -4,8 -4,14c0,5 -0.3681,9.71317 3,11c6.60538,2.52368 12.06458,1.80092 17,1c3.12143,-0.50655 4.8009,-7.06456 4,-12c-1.01309,-6.24289 -5.64749,-9.97252 -10,-11c-4.86624,-1.14876 -10.40948,-1.31879 -15,5c-3.16516,4.35681 -2,9 -2,11c0,2 3,2 9,2c4,0 7.49622,0.09221 8,-4c0.48874,-3.97003 1.34375,-12.34119 -6,-15c-4.70135,-1.70213 -12.06458,-0.80092 -17,0c-3.12143,0.50655 -3,5 -3,10c0,1 0.87857,5.49345 4,6c6.90961,1.12128 17.48691,0.91948 20,-1c2.86536,-2.18855 2.39417,-8.01947 2,-12c-0.50244,-5.0742 -5,-7 -10,-7c-6,0 -13.07645,-0.05621 -16,4c-3.69803,5.13075 -4.95132,10.28912 -3,15c1.37979,3.3311 5.88382,4.5414 14,6c8.9126,1.60173 17.30447,2.53073 21,1c3.91968,-1.62358 3.91901,-6.10701 3,-10c-0.51373,-2.17625 -7,-2 -14,-2c-8,0 -14.11215,0.9183 -17,5c-2.08246,2.94336 -2.47186,7.11833 -2,8c1.70129,3.17892 9,3 18,3c5,0 10.49622,-0.90779 11,-5c0.61093,-4.96254 0.70709,-8.29289 0,-9c-1.41422,-1.41422 -5,0 -8,0c-1,0 -2,0 -2,1l-1,0" id="svg_17" fill-opacity="null" stroke-opacity="null" stroke-width="1.5" stroke="#000" fill="none"/>
  <path d="m280.5,128.45313c1,0 5.03748,0.61092 10,0c4.09222,-0.50378 9,-1 12,-1c5,0 11,0 19,0c4,0 7,0 10,0c3,0 6,-1 9,-1c4,0 6,0 10,0c2,0 7,0 11,0c4,0 6,0 9,0c2,0 3,0 4,0c3,0 5.01291,0.16018 6,0c3.12143,-0.50654 4,-1 6,-1c1,0 3.01291,0.16018 4,0c3.12143,-0.50654 5.82376,-1.48626 8,-2c2.91974,-0.68926 5,0 7,0c3,0 5,0 6,0l2,0l1,0" id="svg_18" fill-opacity="null" stroke-opacity="null" stroke-width="1.5" stroke="#000" fill="none"/>
  <path d="m340.5,104.45313c0,0 0,-1 0,-2c0,-1 0,-2 0,-3c0,-1 0,-2 0,-3c0,-1 0,-2 0,-3c0,-1 0.38269,-2.07612 0,-3c-0.5412,-1.30656 -1,-2 -1,-3c0,-1 0,-2 0,-3l0,-1" id="svg_19" fill-opacity="null" stroke-opacity="null" stroke-width="1.5" stroke="#000" fill="none"/>
  <path d="m271.5,87.45313c2,-1 4,-1 12,-1c11,0 22,0 34,0c9,0 18,0 22,0c3,0 6,0 8,0c4,0 8,0 12,0c3,0 8,0 12,0c4,0 9,0 11,0c5,0 7,0 8,0c2,0 5,0 8,0c2,0 4,0 7,0c2,0 6,0 10,0c7,0 8,-1 10,-1l1,0" id="svg_20" fill-opacity="null" stroke-opacity="null" stroke-width="1.5" stroke="#000" fill="none"/>
  <path d="m563.5,282.45313c0,0 3,0 12,0c16,0 35,0 57,0c13,0 22,0 29,0c7,0 12,0 14,0c3,0 9,0 15,0l4,0" id="svg_21" fill-opacity="null" stroke-opacity="null" stroke-width="1.5" stroke="#000" fill="none"/>
  <path d="m565.5,324.45313c3,0 8.99561,0.04504 19,1c10.99536,1.04953 23.53857,4.43893 34,7c9.7616,2.38974 17.84485,2.84796 32,5c10.91986,1.66016 26,3 40,5l9,1l5,0l1,1" id="svg_22" fill-opacity="null" stroke-opacity="null" stroke-width="1.5" stroke="#000" fill="none"/>
  <path d="m548.5,369.45313c0,1 1,3 5,6c4,3 11.14203,7.81366 23,17c15.18561,11.76425 31.53735,22.21442 45,32c11.49652,8.35648 23.63501,16.14236 32,23c7.6557,6.27618 12.22272,10.724 16,14c3.20514,2.77979 7,6 9,7l1,2" id="svg_23" fill-opacity="null" stroke-opacity="null" stroke-width="1.5" stroke="#000" fill="none"/>
  <path d="m132.5,269.45313c-3,0 -9.92638,-0.54041 -30,-3c-20.93843,-2.56555 -39.8478,-6.75955 -53,-9c-8.92679,-1.52066 -15.11237,-0.54706 -20,-2c-5.16191,-1.53448 -6,-2 -8,-2l-2,0l-1,0" id="svg_24" fill-opacity="null" stroke-opacity="null" stroke-width="1.5" stroke="#000" fill="none"/>
  <path d="m137.5,301.45313c-9,0 -25,0 -40,0c-15,0 -28,0 -39,0c-11,0 -22,0 -29,0l-8,0l-4,0l-4,0" id="svg_25" fill-opacity="null" stroke-opacity="null" stroke-width="1.5" stroke="#000" fill="none"/>
  <path d="m148.5,334.45313c0,1 -11,3 -20,5c-9,2 -19.23261,3.83951 -27,6c-9.48865,2.63925 -18.96459,5.08585 -31,10c-4.98559,2.03568 -9.52016,4.32367 -11,6c-2.38616,2.703 -3.391,3.7695 -7,6c-2.68999,1.66251 -6,2 -8,4l-1,0" id="svg_26" fill-opacity="null" stroke-opacity="null" stroke-width="1.5" stroke="#000" fill="none"/>
 </g>
</svg>